 0
SECTION
 2
HEADER
 9
$EXTMIN
 10
100000000000000000000.0
 20
100000000000000000000.0
 9
$EXTMAX
 10
-100000000000000000000.0
 20
-100000000000000000000.0
 9
$LIMMIN
 10
0.0
 20
0.0
 9
$LIMMAX
 10
12.0
 20
9.0
 9
$PLIMMIN
 10
0.0
 20
0.0
 9
$PLIMMAX
 10
12.0
 20
9.0
 9
$DIMSTYLE
 2
STANDARD
 9
$DIMBLK
 1

 9
$DIMBLK1
 1

 9
$DIMBLK2
 1

 9
$DIMSCALE
 40
1.0
 9
$DIMASZ
 40
0.18
 9
$DIMEXO
 40
0.0625
 9
$DIMDLI
 40
0.38
 9
$DIMEXE
 40
0.18
 9
$DIMDLE
 40
0.0
 9
$DIMTIH
 70
1
 9
$DIMTOH
 70
1
 9
$DIMSD1
 70
0
 9
$DIMSD2
 70
0
 9
$DIMTAD
 70
0
 9
$DIMZIN
 70
12
 9
$DIMTXT
 40
0.18
 9
$DIMGAP
 40
0.09
 9
$DIMSAH
 70
1
 9
$DIMSOXD
 70
0
 9
$LTSCALE
 40
1.0
 0
ENDSEC
 0
SECTION
 2
TABLES
 0
TABLE
 2
APPID
 70
1
 0
ENDTAB
 0
TABLE
 2
LTYPE
 70
3
 0
LTYPE
 2
BYBLOCK
 70
64
 3

 72
65
 73
0
 40
0.0
 0
LTYPE
 2
BYLAYER
 70
64
 3

 72
65
 73
0
 40
0.0
 0
LTYPE
 2
CONTINUOUS
 70
64
 3
Solid_line
 72
65
 73
0
 40
0.0
 0
ENDTAB
 0
TABLE
 2
STYLE
 70
1
 0
STYLE
 2
STANDARD
 70
0
 40
0.0
 41
1.0
 50
0.0
 71
0
 42
0.0
 3
txt
 4

 0
ENDTAB
 0
TABLE
 2
DIMSTYLE
 70
1
 0
DIMSTYLE
 2
STANDARD
 70
64
 3

 4

 5

 6

 7

 40
1.0
 41
0.18
 42
0.0625
 43
0.38
 44
0.18
 45
0.0
 46
0.0
 47
0.0
 48
0.0
 140
0.18
 141
0.09
 142
0.0
 143
25.4
 144
1.0
 145
0.0
 146
1.0
 147
0.09
 71
0
 72
0
 73
1
 74
1
 75
0
 76
0
 77
0
 78
12
 170
0
 171
2
 172
0
 173
0
 174
0
 175
0
 176
0
 177
0
 178
0
 0
ENDTAB
 0
TABLE
 2
LAYER
 70
2
 0
LAYER
 2
0
 70
64
 62
7
 6
CONTINUOUS
 0
LAYER
 2
_U_30EC_U_30A4_U_30E4_U_30
 70
64
 62
7
 6
CONTINUOUS
 0
ENDTAB
 0
TABLE
 2
UCS
 70
0
 0
ENDTAB
 0
TABLE
 2
VIEW
 70
0
 0
ENDTAB
 0
TABLE
 2
VPORT
 70
1
 0
VPORT
 2
*ACTIVE
 70
0
 10
0.0
 20
0.0
 11
1.0
 21
1.0
 12
0.0
 22
0.0
 13
0.0
 23
0.0
 14
0.5
 24
0.5
 15
0.5
 25
0.5
 16
0.0
 26
0.0
 36
1.0
 17
148.50004163
 27
-105.00077775
 37
0.0
 40
210.0015555
 41
1.41427563
 42
50.0
 43
0.0
 44
0.0
 50
0.0
 51
0.0
 71
0
 72
100
 73
1
 74
3
 75
0
 76
0
 77
0
 78
0
 0
ENDTAB
 0
ENDSEC
 0
SECTION
 2
ENTITIES
 0
LINE
 8
_U_30EC_U_30A4_U_30E4_U_30
 62
1
 10
-7.49999995
 20
9.49999994
 30
0.0
 11
-6.99999996
 21
9.99999994
 31
0.0
 0
LINE
 8
_U_30EC_U_30A4_U_30E4_U_30
 62
1
 10
-6.99999996
 20
9.99999994
 30
0.0
 11
-0.0
 21
9.99999994
 31
0.0
 0
LINE
 8
_U_30EC_U_30A4_U_30E4_U_30
 62
1
 10
-0.0
 20
9.99999994
 30
0.0
 11
0.0
 21
8.74999995
 31
0.0
 0
LINE
 8
_U_30EC_U_30A4_U_30E4_U_30
 62
1
 10
0.0
 20
8.74999995
 30
0.0
 11
-1.24999999
 21
7.49999995
 31
0.0
 0
LINE
 8
_U_30EC_U_30A4_U_30E4_U_30
 62
1
 10
-1.24999999
 20
7.49999995
 30
0.0
 11
-5.49999997
 21
7.49999995
 31
0.0
 0
LINE
 8
_U_30EC_U_30A4_U_30E4_U_30
 62
1
 10
-5.49999997
 20
7.49999995
 30
0.0
 11
-7.49999995
 21
9.49999994
 31
0.0
 0
LINE
 8
_U_30EC_U_30A4_U_30E4_U_30
 62
1
 10
-7.49999995
 20
9.49999994
 30
0.0
 11
-5.49999997
 21
7.49999995
 31
0.0
 0
LINE
 8
_U_30EC_U_30A4_U_30E4_U_30
 62
1
 10
-5.49999997
 20
7.49999995
 30
0.0
 11
-5.49999997
 21
1.24999999
 31
0.0
 0
LINE
 8
_U_30EC_U_30A4_U_30E4_U_30
 62
1
 10
-5.49999997
 20
1.24999999
 30
0.0
 11
-6.74999996
 21
0.0
 31
0.0
 0
LINE
 8
_U_30EC_U_30A4_U_30E4_U_30
 62
1
 10
-6.74999996
 20
0.0
 30
0.0
 11
-7.99999995
 21
-0.0
 31
0.0
 0
LINE
 8
_U_30EC_U_30A4_U_30E4_U_30
 62
1
 10
-7.99999995
 20
-0.0
 30
0.0
 11
-7.99999995
 21
8.99999995
 31
0.0
 0
LINE
 8
_U_30EC_U_30A4_U_30E4_U_30
 62
1
 10
-7.99999995
 20
8.99999995
 30
0.0
 11
-7.49999995
 21
9.49999994
 31
0.0
 0
LINE
 8
_U_30EC_U_30A4_U_30E4_U_30
 62
1
 10
-6.74999996
 20
0.0
 30
0.0
 11
-5.49999997
 21
1.24999999
 31
0.0
 0
LINE
 8
_U_30EC_U_30A4_U_30E4_U_30
 62
1
 10
-5.49999997
 20
1.24999999
 30
0.0
 11
-1.24999999
 21
1.24999999
 31
0.0
 0
LINE
 8
_U_30EC_U_30A4_U_30E4_U_30
 62
1
 10
-1.24999999
 20
1.24999999
 30
0.0
 11
-0.0
 21
0.0
 31
0.0
 0
LINE
 8
_U_30EC_U_30A4_U_30E4_U_30
 62
1
 10
-0.0
 20
0.0
 30
0.0
 11
-1.24999999
 21
-1.24999999
 31
0.0
 0
LINE
 8
_U_30EC_U_30A4_U_30E4_U_30
 62
1
 10
-1.24999999
 20
-1.24999999
 30
0.0
 11
-5.49999997
 21
-1.24999999
 31
0.0
 0
LINE
 8
_U_30EC_U_30A4_U_30E4_U_30
 62
1
 10
-5.49999997
 20
-1.24999999
 30
0.0
 11
-6.74999996
 21
0.0
 31
0.0
 0
LINE
 8
_U_30EC_U_30A4_U_30E4_U_30
 62
1
 10
-5.49999997
 20
7.49999995
 30
0.0
 11
-3.99999998
 21
7.49999995
 31
0.0
 0
LINE
 8
_U_30EC_U_30A4_U_30E4_U_30
 62
1
 10
-3.99999998
 20
7.49999995
 30
0.0
 11
-1.24999999
 21
3.74999998
 31
0.0
 0
LINE
 8
_U_30EC_U_30A4_U_30E4_U_30
 62
1
 10
-1.24999999
 20
3.74999998
 30
0.0
 11
-1.24999999
 21
1.24999999
 31
0.0
 0
LINE
 8
_U_30EC_U_30A4_U_30E4_U_30
 62
1
 10
-1.24999999
 20
1.24999999
 30
0.0
 11
-2.74999998
 21
1.24999999
 31
0.0
 0
LINE
 8
_U_30EC_U_30A4_U_30E4_U_30
 62
1
 10
-2.74999998
 20
1.24999999
 30
0.0
 11
-5.49999997
 21
4.99999997
 31
0.0
 0
LINE
 8
_U_30EC_U_30A4_U_30E4_U_30
 62
1
 10
-5.49999997
 20
4.99999997
 30
0.0
 11
-5.49999997
 21
7.49999995
 31
0.0
 0
LINE
 8
_U_30EC_U_30A4_U_30E4_U_30
 62
1
 10
7.49999995
 20
9.49999994
 30
0.0
 11
6.99999996
 21
9.99999994
 31
0.0
 0
LINE
 8
_U_30EC_U_30A4_U_30E4_U_30
 62
1
 10
6.99999996
 20
9.99999994
 30
0.0
 11
0.0
 21
9.99999994
 31
0.0
 0
LINE
 8
_U_30EC_U_30A4_U_30E4_U_30
 62
1
 10
0.0
 20
9.99999994
 30
0.0
 11
0.0
 21
8.74999995
 31
0.0
 0
LINE
 8
_U_30EC_U_30A4_U_30E4_U_30
 62
1
 10
0.0
 20
8.74999995
 30
0.0
 11
1.24999999
 21
7.49999995
 31
0.0
 0
LINE
 8
_U_30EC_U_30A4_U_30E4_U_30
 62
1
 10
1.24999999
 20
7.49999995
 30
0.0
 11
5.49999997
 21
7.49999995
 31
0.0
 0
LINE
 8
_U_30EC_U_30A4_U_30E4_U_30
 62
1
 10
5.49999997
 20
7.49999995
 30
0.0
 11
7.49999995
 21
9.49999994
 31
0.0
 0
LINE
 8
_U_30EC_U_30A4_U_30E4_U_30
 62
1
 10
7.49999995
 20
9.49999994
 30
0.0
 11
5.49999997
 21
7.49999995
 31
0.0
 0
LINE
 8
_U_30EC_U_30A4_U_30E4_U_30
 62
1
 10
5.49999997
 20
7.49999995
 30
0.0
 11
5.49999997
 21
1.24999999
 31
0.0
 0
LINE
 8
_U_30EC_U_30A4_U_30E4_U_30
 62
1
 10
5.49999997
 20
1.24999999
 30
0.0
 11
6.74999996
 21
-0.0
 31
0.0
 0
LINE
 8
_U_30EC_U_30A4_U_30E4_U_30
 62
1
 10
6.74999996
 20
-0.0
 30
0.0
 11
7.99999995
 21
-0.0
 31
0.0
 0
LINE
 8
_U_30EC_U_30A4_U_30E4_U_30
 62
1
 10
7.99999995
 20
-0.0
 30
0.0
 11
7.99999995
 21
8.99999995
 31
0.0
 0
LINE
 8
_U_30EC_U_30A4_U_30E4_U_30
 62
1
 10
7.99999995
 20
8.99999995
 30
0.0
 11
7.49999995
 21
9.49999994
 31
0.0
 0
LINE
 8
_U_30EC_U_30A4_U_30E4_U_30
 62
1
 10
6.74999996
 20
-0.0
 30
0.0
 11
5.49999997
 21
1.24999999
 31
0.0
 0
LINE
 8
_U_30EC_U_30A4_U_30E4_U_30
 62
1
 10
5.49999997
 20
1.24999999
 30
0.0
 11
1.24999999
 21
1.24999999
 31
0.0
 0
LINE
 8
_U_30EC_U_30A4_U_30E4_U_30
 62
1
 10
1.24999999
 20
1.24999999
 30
0.0
 11
-0.0
 21
0.0
 31
0.0
 0
LINE
 8
_U_30EC_U_30A4_U_30E4_U_30
 62
1
 10
-0.0
 20
0.0
 30
0.0
 11
1.24999999
 21
-1.24999999
 31
0.0
 0
LINE
 8
_U_30EC_U_30A4_U_30E4_U_30
 62
1
 10
1.24999999
 20
-1.24999999
 30
0.0
 11
5.49999997
 21
-1.24999999
 31
0.0
 0
LINE
 8
_U_30EC_U_30A4_U_30E4_U_30
 62
1
 10
5.49999997
 20
-1.24999999
 30
0.0
 11
6.74999996
 21
-0.0
 31
0.0
 0
LINE
 8
_U_30EC_U_30A4_U_30E4_U_30
 62
1
 10
5.49999997
 20
7.49999995
 30
0.0
 11
3.99999998
 21
7.49999995
 31
0.0
 0
LINE
 8
_U_30EC_U_30A4_U_30E4_U_30
 62
1
 10
3.99999998
 20
7.49999995
 30
0.0
 11
1.24999999
 21
3.74999998
 31
0.0
 0
LINE
 8
_U_30EC_U_30A4_U_30E4_U_30
 62
1
 10
1.24999999
 20
3.74999998
 30
0.0
 11
1.24999999
 21
1.24999999
 31
0.0
 0
LINE
 8
_U_30EC_U_30A4_U_30E4_U_30
 62
1
 10
1.24999999
 20
1.24999999
 30
0.0
 11
2.74999998
 21
1.24999999
 31
0.0
 0
LINE
 8
_U_30EC_U_30A4_U_30E4_U_30
 62
1
 10
2.74999998
 20
1.24999999
 30
0.0
 11
5.49999997
 21
4.99999997
 31
0.0
 0
LINE
 8
_U_30EC_U_30A4_U_30E4_U_30
 62
1
 10
5.49999997
 20
4.99999997
 30
0.0
 11
5.49999997
 21
7.49999995
 31
0.0
 0
LINE
 8
_U_30EC_U_30A4_U_30E4_U_30
 62
1
 10
0.0
 20
8.74999995
 30
0.0
 11
-1.24999999
 21
7.49999995
 31
0.0
 0
LINE
 8
_U_30EC_U_30A4_U_30E4_U_30
 62
1
 10
-1.24999999
 20
7.49999995
 30
0.0
 11
-1.24999999
 21
1.24999999
 31
0.0
 0
LINE
 8
_U_30EC_U_30A4_U_30E4_U_30
 62
1
 10
-1.24999999
 20
1.24999999
 30
0.0
 11
0.0
 21
-0.0
 31
0.0
 0
LINE
 8
_U_30EC_U_30A4_U_30E4_U_30
 62
1
 10
0.0
 20
-0.0
 30
0.0
 11
1.24999999
 21
1.24999999
 31
0.0
 0
LINE
 8
_U_30EC_U_30A4_U_30E4_U_30
 62
1
 10
1.24999999
 20
1.24999999
 30
0.0
 11
1.24999999
 21
7.49999995
 31
0.0
 0
LINE
 8
_U_30EC_U_30A4_U_30E4_U_30
 62
1
 10
1.24999999
 20
7.49999995
 30
0.0
 11
0.0
 21
8.74999995
 31
0.0
 0
LINE
 8
_U_30EC_U_30A4_U_30E4_U_30
 62
1
 10
-7.49999995
 20
-9.49999994
 30
0.0
 11
-6.99999996
 21
-9.99999994
 31
0.0
 0
LINE
 8
_U_30EC_U_30A4_U_30E4_U_30
 62
1
 10
-6.99999996
 20
-9.99999994
 30
0.0
 11
-0.0
 21
-9.99999994
 31
0.0
 0
LINE
 8
_U_30EC_U_30A4_U_30E4_U_30
 62
1
 10
-0.0
 20
-9.99999994
 30
0.0
 11
0.0
 21
-8.74999995
 31
0.0
 0
LINE
 8
_U_30EC_U_30A4_U_30E4_U_30
 62
1
 10
0.0
 20
-8.74999995
 30
0.0
 11
-1.24999999
 21
-7.49999995
 31
0.0
 0
LINE
 8
_U_30EC_U_30A4_U_30E4_U_30
 62
1
 10
-1.24999999
 20
-7.49999995
 30
0.0
 11
-5.49999997
 21
-7.49999995
 31
0.0
 0
LINE
 8
_U_30EC_U_30A4_U_30E4_U_30
 62
1
 10
-5.49999997
 20
-7.49999995
 30
0.0
 11
-7.49999995
 21
-9.49999994
 31
0.0
 0
LINE
 8
_U_30EC_U_30A4_U_30E4_U_30
 62
1
 10
-7.49999995
 20
-9.49999994
 30
0.0
 11
-5.49999997
 21
-7.49999995
 31
0.0
 0
LINE
 8
_U_30EC_U_30A4_U_30E4_U_30
 62
1
 10
-5.49999997
 20
-7.49999995
 30
0.0
 11
-5.49999997
 21
-1.24999999
 31
0.0
 0
LINE
 8
_U_30EC_U_30A4_U_30E4_U_30
 62
1
 10
-5.49999997
 20
-1.24999999
 30
0.0
 11
-6.74999996
 21
-0.0
 31
0.0
 0
LINE
 8
_U_30EC_U_30A4_U_30E4_U_30
 62
1
 10
-6.74999996
 20
-0.0
 30
0.0
 11
-7.99999995
 21
-0.0
 31
0.0
 0
LINE
 8
_U_30EC_U_30A4_U_30E4_U_30
 62
1
 10
-7.99999995
 20
-0.0
 30
0.0
 11
-7.99999995
 21
-8.99999995
 31
0.0
 0
LINE
 8
_U_30EC_U_30A4_U_30E4_U_30
 62
1
 10
-7.99999995
 20
-8.99999995
 30
0.0
 11
-7.49999995
 21
-9.49999994
 31
0.0
 0
LINE
 8
_U_30EC_U_30A4_U_30E4_U_30
 62
1
 10
-5.49999997
 20
-7.49999995
 30
0.0
 11
-3.99999998
 21
-7.49999995
 31
0.0
 0
LINE
 8
_U_30EC_U_30A4_U_30E4_U_30
 62
1
 10
-3.99999998
 20
-7.49999995
 30
0.0
 11
-1.24999999
 21
-3.74999998
 31
0.0
 0
LINE
 8
_U_30EC_U_30A4_U_30E4_U_30
 62
1
 10
-1.24999999
 20
-3.74999998
 30
0.0
 11
-1.24999999
 21
-1.24999999
 31
0.0
 0
LINE
 8
_U_30EC_U_30A4_U_30E4_U_30
 62
1
 10
-1.24999999
 20
-1.24999999
 30
0.0
 11
-2.74999998
 21
-1.24999999
 31
0.0
 0
LINE
 8
_U_30EC_U_30A4_U_30E4_U_30
 62
1
 10
-2.74999998
 20
-1.24999999
 30
0.0
 11
-5.49999997
 21
-4.99999997
 31
0.0
 0
LINE
 8
_U_30EC_U_30A4_U_30E4_U_30
 62
1
 10
-5.49999997
 20
-4.99999997
 30
0.0
 11
-5.49999997
 21
-7.49999995
 31
0.0
 0
LINE
 8
_U_30EC_U_30A4_U_30E4_U_30
 62
1
 10
7.49999995
 20
-9.49999994
 30
0.0
 11
6.99999996
 21
-9.99999994
 31
0.0
 0
LINE
 8
_U_30EC_U_30A4_U_30E4_U_30
 62
1
 10
6.99999996
 20
-9.99999994
 30
0.0
 11
0.0
 21
-9.99999994
 31
0.0
 0
LINE
 8
_U_30EC_U_30A4_U_30E4_U_30
 62
1
 10
0.0
 20
-9.99999994
 30
0.0
 11
0.0
 21
-8.74999995
 31
0.0
 0
LINE
 8
_U_30EC_U_30A4_U_30E4_U_30
 62
1
 10
0.0
 20
-8.74999995
 30
0.0
 11
1.24999999
 21
-7.49999995
 31
0.0
 0
LINE
 8
_U_30EC_U_30A4_U_30E4_U_30
 62
1
 10
1.24999999
 20
-7.49999995
 30
0.0
 11
5.49999997
 21
-7.49999995
 31
0.0
 0
LINE
 8
_U_30EC_U_30A4_U_30E4_U_30
 62
1
 10
5.49999997
 20
-7.49999995
 30
0.0
 11
7.49999995
 21
-9.49999994
 31
0.0
 0
LINE
 8
_U_30EC_U_30A4_U_30E4_U_30
 62
1
 10
7.49999995
 20
-9.49999994
 30
0.0
 11
5.49999997
 21
-7.49999995
 31
0.0
 0
LINE
 8
_U_30EC_U_30A4_U_30E4_U_30
 62
1
 10
5.49999997
 20
-7.49999995
 30
0.0
 11
5.49999997
 21
-1.24999999
 31
0.0
 0
LINE
 8
_U_30EC_U_30A4_U_30E4_U_30
 62
1
 10
5.49999997
 20
-1.24999999
 30
0.0
 11
6.74999996
 21
-0.0
 31
0.0
 0
LINE
 8
_U_30EC_U_30A4_U_30E4_U_30
 62
1
 10
6.74999996
 20
-0.0
 30
0.0
 11
7.99999995
 21
0.0
 31
0.0
 0
LINE
 8
_U_30EC_U_30A4_U_30E4_U_30
 62
1
 10
7.99999995
 20
0.0
 30
0.0
 11
7.99999995
 21
-8.99999995
 31
0.0
 0
LINE
 8
_U_30EC_U_30A4_U_30E4_U_30
 62
1
 10
7.99999995
 20
-8.99999995
 30
0.0
 11
7.49999995
 21
-9.49999994
 31
0.0
 0
LINE
 8
_U_30EC_U_30A4_U_30E4_U_30
 62
1
 10
5.49999997
 20
-7.49999995
 30
0.0
 11
3.99999998
 21
-7.49999995
 31
0.0
 0
LINE
 8
_U_30EC_U_30A4_U_30E4_U_30
 62
1
 10
3.99999998
 20
-7.49999995
 30
0.0
 11
1.24999999
 21
-3.74999998
 31
0.0
 0
LINE
 8
_U_30EC_U_30A4_U_30E4_U_30
 62
1
 10
1.24999999
 20
-3.74999998
 30
0.0
 11
1.24999999
 21
-1.24999999
 31
0.0
 0
LINE
 8
_U_30EC_U_30A4_U_30E4_U_30
 62
1
 10
1.24999999
 20
-1.24999999
 30
0.0
 11
2.74999998
 21
-1.24999999
 31
0.0
 0
LINE
 8
_U_30EC_U_30A4_U_30E4_U_30
 62
1
 10
2.74999998
 20
-1.24999999
 30
0.0
 11
5.49999997
 21
-4.99999997
 31
0.0
 0
LINE
 8
_U_30EC_U_30A4_U_30E4_U_30
 62
1
 10
5.49999997
 20
-4.99999997
 30
0.0
 11
5.49999997
 21
-7.49999995
 31
0.0
 0
LINE
 8
_U_30EC_U_30A4_U_30E4_U_30
 62
1
 10
0.0
 20
-8.74999995
 30
0.0
 11
-1.24999999
 21
-7.49999995
 31
0.0
 0
LINE
 8
_U_30EC_U_30A4_U_30E4_U_30
 62
1
 10
-1.24999999
 20
-7.49999995
 30
0.0
 11
-1.24999999
 21
-1.24999999
 31
0.0
 0
LINE
 8
_U_30EC_U_30A4_U_30E4_U_30
 62
1
 10
-1.24999999
 20
-1.24999999
 30
0.0
 11
-0.0
 21
-0.0
 31
0.0
 0
LINE
 8
_U_30EC_U_30A4_U_30E4_U_30
 62
1
 10
-0.0
 20
-0.0
 30
0.0
 11
1.24999999
 21
-1.24999999
 31
0.0
 0
LINE
 8
_U_30EC_U_30A4_U_30E4_U_30
 62
1
 10
1.24999999
 20
-1.24999999
 30
0.0
 11
1.24999999
 21
-7.49999995
 31
0.0
 0
LINE
 8
_U_30EC_U_30A4_U_30E4_U_30
 62
1
 10
1.24999999
 20
-7.49999995
 30
0.0
 11
0.0
 21
-8.74999995
 31
0.0
 0
ENDSEC
 0
EOF
