G04 #@! TF.FileFunction,Soldermask,Bot*
%FSLAX46Y46*%
G04 Gerber Fmt 4.6, Leading zero omitted, Abs format (unit mm)*
G04 Created by KiCad (PCBNEW 4.0.1-stable) date 2017/04/09 5:42:53*
%MOMM*%
G01*
G04 APERTURE LIST*
%ADD10C,0.100000*%
%ADD11R,2.100000X2.100000*%
%ADD12O,2.100000X2.100000*%
G04 APERTURE END LIST*
D10*
D11*
X182250000Y-43500000D03*
D12*
X182250000Y-46040000D03*
X182250000Y-48580000D03*
X182250000Y-51120000D03*
X182250000Y-53660000D03*
X182250000Y-56200000D03*
X182250000Y-58740000D03*
X182250000Y-61280000D03*
X182250000Y-63820000D03*
X182250000Y-66360000D03*
D11*
X160750000Y-43500000D03*
D12*
X160750000Y-46040000D03*
X160750000Y-48580000D03*
X160750000Y-51120000D03*
X160750000Y-53660000D03*
X160750000Y-56200000D03*
X160750000Y-58740000D03*
X160750000Y-61280000D03*
X160750000Y-63820000D03*
X160750000Y-66360000D03*
D11*
X133750000Y-43500000D03*
D12*
X133750000Y-46040000D03*
X133750000Y-48580000D03*
X133750000Y-51120000D03*
X133750000Y-53660000D03*
X133750000Y-56200000D03*
X133750000Y-58740000D03*
X133750000Y-61280000D03*
X133750000Y-63820000D03*
X133750000Y-66360000D03*
D11*
X155250000Y-43500000D03*
D12*
X155250000Y-46040000D03*
X155250000Y-48580000D03*
X155250000Y-51120000D03*
X155250000Y-53660000D03*
X155250000Y-56200000D03*
X155250000Y-58740000D03*
X155250000Y-61280000D03*
X155250000Y-63820000D03*
X155250000Y-66360000D03*
D11*
X128250000Y-43500000D03*
D12*
X128250000Y-46040000D03*
X128250000Y-48580000D03*
X128250000Y-51120000D03*
X128250000Y-53660000D03*
X128250000Y-56200000D03*
X128250000Y-58740000D03*
X128250000Y-61280000D03*
X128250000Y-63820000D03*
X128250000Y-66360000D03*
D11*
X106750000Y-43500000D03*
D12*
X106750000Y-46040000D03*
X106750000Y-48580000D03*
X106750000Y-51120000D03*
X106750000Y-53660000D03*
X106750000Y-56200000D03*
X106750000Y-58740000D03*
X106750000Y-61280000D03*
X106750000Y-63820000D03*
X106750000Y-66360000D03*
D11*
X106750000Y-71500000D03*
D12*
X106750000Y-74040000D03*
X106750000Y-76580000D03*
X106750000Y-79120000D03*
X106750000Y-81660000D03*
X106750000Y-84200000D03*
X106750000Y-86740000D03*
X106750000Y-89280000D03*
X106750000Y-91820000D03*
X106750000Y-94360000D03*
D11*
X128250000Y-71500000D03*
D12*
X128250000Y-74040000D03*
X128250000Y-76580000D03*
X128250000Y-79120000D03*
X128250000Y-81660000D03*
X128250000Y-84200000D03*
X128250000Y-86740000D03*
X128250000Y-89280000D03*
X128250000Y-91820000D03*
X128250000Y-94360000D03*
D11*
X155250000Y-71500000D03*
D12*
X155250000Y-74040000D03*
X155250000Y-76580000D03*
X155250000Y-79120000D03*
X155250000Y-81660000D03*
X155250000Y-84200000D03*
X155250000Y-86740000D03*
X155250000Y-89280000D03*
X155250000Y-91820000D03*
X155250000Y-94360000D03*
D11*
X133750000Y-71500000D03*
D12*
X133750000Y-74040000D03*
X133750000Y-76580000D03*
X133750000Y-79120000D03*
X133750000Y-81660000D03*
X133750000Y-84200000D03*
X133750000Y-86740000D03*
X133750000Y-89280000D03*
X133750000Y-91820000D03*
X133750000Y-94360000D03*
D11*
X160750000Y-71500000D03*
D12*
X160750000Y-74040000D03*
X160750000Y-76580000D03*
X160750000Y-79120000D03*
X160750000Y-81660000D03*
X160750000Y-84200000D03*
X160750000Y-86740000D03*
X160750000Y-89280000D03*
X160750000Y-91820000D03*
X160750000Y-94360000D03*
D11*
X182250000Y-71500000D03*
D12*
X182250000Y-74040000D03*
X182250000Y-76580000D03*
X182250000Y-79120000D03*
X182250000Y-81660000D03*
X182250000Y-84200000D03*
X182250000Y-86740000D03*
X182250000Y-89280000D03*
X182250000Y-91820000D03*
X182250000Y-94360000D03*
D11*
X182250000Y-99500000D03*
D12*
X182250000Y-102040000D03*
X182250000Y-104580000D03*
X182250000Y-107120000D03*
X182250000Y-109660000D03*
X182250000Y-112200000D03*
X182250000Y-114740000D03*
X182250000Y-117280000D03*
X182250000Y-119820000D03*
X182250000Y-122360000D03*
D11*
X160750000Y-99500000D03*
D12*
X160750000Y-102040000D03*
X160750000Y-104580000D03*
X160750000Y-107120000D03*
X160750000Y-109660000D03*
X160750000Y-112200000D03*
X160750000Y-114740000D03*
X160750000Y-117280000D03*
X160750000Y-119820000D03*
X160750000Y-122360000D03*
D11*
X133750000Y-99500000D03*
D12*
X133750000Y-102040000D03*
X133750000Y-104580000D03*
X133750000Y-107120000D03*
X133750000Y-109660000D03*
X133750000Y-112200000D03*
X133750000Y-114740000D03*
X133750000Y-117280000D03*
X133750000Y-119820000D03*
X133750000Y-122360000D03*
D11*
X155250000Y-99500000D03*
D12*
X155250000Y-102040000D03*
X155250000Y-104580000D03*
X155250000Y-107120000D03*
X155250000Y-109660000D03*
X155250000Y-112200000D03*
X155250000Y-114740000D03*
X155250000Y-117280000D03*
X155250000Y-119820000D03*
X155250000Y-122360000D03*
D11*
X128250000Y-99500000D03*
D12*
X128250000Y-102040000D03*
X128250000Y-104580000D03*
X128250000Y-107120000D03*
X128250000Y-109660000D03*
X128250000Y-112200000D03*
X128250000Y-114740000D03*
X128250000Y-117280000D03*
X128250000Y-119820000D03*
X128250000Y-122360000D03*
D11*
X106750000Y-99500000D03*
D12*
X106750000Y-102040000D03*
X106750000Y-104580000D03*
X106750000Y-107120000D03*
X106750000Y-109660000D03*
X106750000Y-112200000D03*
X106750000Y-114740000D03*
X106750000Y-117280000D03*
X106750000Y-119820000D03*
X106750000Y-122360000D03*
M02*
