G04 #@! TF.FileFunction,Profile,NP*
%FSLAX46Y46*%
G04 Gerber Fmt 4.6, Leading zero omitted, Abs format (unit mm)*
G04 Created by KiCad (PCBNEW 4.0.1-stable) date 2017/04/09 5:42:53*
%MOMM*%
G01*
G04 APERTURE LIST*
%ADD10C,0.100000*%
%ADD11C,0.150000*%
G04 APERTURE END LIST*
D10*
D11*
X104000000Y-69000000D02*
X131000000Y-69000000D01*
X131000000Y-69000000D02*
X158000000Y-69000000D01*
X158000000Y-69000000D02*
X185000000Y-69000000D01*
X185000000Y-69000000D02*
X158000000Y-69000000D01*
X185000000Y-41000000D02*
X185000000Y-69000000D01*
X158000000Y-41000000D02*
X185000000Y-41000000D01*
X131000000Y-41000000D02*
X158000000Y-41000000D01*
X131000000Y-69000000D02*
X131000000Y-41000000D01*
X158000000Y-41000000D02*
X158000000Y-69000000D01*
X158000000Y-69000000D02*
X131000000Y-69000000D01*
X131000000Y-69000000D02*
X104000000Y-69000000D01*
X131000000Y-41000000D02*
X131000000Y-69000000D01*
X104000000Y-69000000D02*
X104000000Y-41000000D01*
X104000000Y-41000000D02*
X131000000Y-41000000D01*
X104000000Y-69000000D02*
X131000000Y-69000000D01*
X104000000Y-97000000D02*
X104000000Y-69000000D01*
X131000000Y-69000000D02*
X131000000Y-97000000D01*
X131000000Y-97000000D02*
X104000000Y-97000000D01*
X158000000Y-97000000D02*
X131000000Y-97000000D01*
X158000000Y-69000000D02*
X158000000Y-97000000D01*
X131000000Y-97000000D02*
X131000000Y-69000000D01*
X131000000Y-69000000D02*
X158000000Y-69000000D01*
X158000000Y-69000000D02*
X185000000Y-69000000D01*
X185000000Y-69000000D02*
X185000000Y-97000000D01*
X185000000Y-97000000D02*
X158000000Y-97000000D01*
X185000000Y-125000000D02*
X158000000Y-125000000D01*
X185000000Y-97000000D02*
X185000000Y-125000000D01*
X158000000Y-97000000D02*
X185000000Y-97000000D01*
X131000000Y-97000000D02*
X158000000Y-97000000D01*
X131000000Y-125000000D02*
X131000000Y-97000000D01*
X158000000Y-97000000D02*
X158000000Y-125000000D01*
X158000000Y-125000000D02*
X131000000Y-125000000D01*
X131000000Y-125000000D02*
X104000000Y-125000000D01*
X131000000Y-97000000D02*
X131000000Y-125000000D01*
X104000000Y-125000000D02*
X104000000Y-97000000D01*
X104000000Y-97000000D02*
X131000000Y-97000000D01*
M02*
