M48
;DRILL file {KiCad 4.0.1-stable} date 2017/04/09 5:42:41
;FORMAT={-:-/ absolute / metric / decimal}
FMAT,2
METRIC,TZ
T1C0.635
T2C1.000
%
G90
G05
M71
T1
X109.279Y-49.929
X109.279Y-77.929
X109.279Y-105.929
X112.148Y-46.369
X112.148Y-74.369
X112.148Y-102.369
X114.709Y-48.627
X114.709Y-76.627
X114.709Y-104.627
X114.89Y-57.81
X114.89Y-85.81
X114.89Y-113.81
X115.756Y-53.339
X115.756Y-81.339
X115.756Y-109.339
X115.87Y-59.787
X115.87Y-87.787
X115.87Y-115.787
X118.952Y-50.534
X118.952Y-78.534
X118.952Y-106.534
X119.319Y-58.454
X119.319Y-86.454
X119.319Y-114.454
X122.767Y-58.15
X122.767Y-86.15
X122.767Y-114.15
X124.005Y-53.515
X124.005Y-81.515
X124.005Y-109.515
X136.279Y-49.929
X136.279Y-77.929
X136.279Y-105.929
X139.148Y-46.369
X139.148Y-74.369
X139.148Y-102.369
X141.709Y-48.627
X141.709Y-76.627
X141.709Y-104.627
X141.89Y-57.81
X141.89Y-85.81
X141.89Y-113.81
X142.756Y-53.339
X142.756Y-81.339
X142.756Y-109.339
X142.87Y-59.787
X142.87Y-87.787
X142.87Y-115.787
X145.952Y-50.534
X145.952Y-78.534
X145.952Y-106.534
X146.319Y-58.454
X146.319Y-86.454
X146.319Y-114.454
X149.767Y-58.15
X149.767Y-86.15
X149.767Y-114.15
X151.005Y-53.515
X151.005Y-81.515
X151.005Y-109.515
X163.279Y-49.929
X163.279Y-77.929
X163.279Y-105.929
X166.148Y-46.369
X166.148Y-74.369
X166.148Y-102.369
X168.709Y-48.627
X168.709Y-76.627
X168.709Y-104.627
X168.89Y-57.81
X168.89Y-85.81
X168.89Y-113.81
X169.756Y-53.339
X169.756Y-81.339
X169.756Y-109.339
X169.87Y-59.787
X169.87Y-87.787
X169.87Y-115.787
X172.952Y-50.534
X172.952Y-78.534
X172.952Y-106.534
X173.319Y-58.454
X173.319Y-86.454
X173.319Y-114.454
X176.767Y-58.15
X176.767Y-86.15
X176.767Y-114.15
X178.005Y-53.515
X178.005Y-81.515
X178.005Y-109.515
T2
X106.75Y-43.5
X106.75Y-46.04
X106.75Y-48.58
X106.75Y-51.12
X106.75Y-53.66
X106.75Y-56.2
X106.75Y-58.74
X106.75Y-61.28
X106.75Y-63.82
X106.75Y-66.36
X106.75Y-71.5
X106.75Y-74.04
X106.75Y-76.58
X106.75Y-79.12
X106.75Y-81.66
X106.75Y-84.2
X106.75Y-86.74
X106.75Y-89.28
X106.75Y-91.82
X106.75Y-94.36
X106.75Y-99.5
X106.75Y-102.04
X106.75Y-104.58
X106.75Y-107.12
X106.75Y-109.66
X106.75Y-112.2
X106.75Y-114.74
X106.75Y-117.28
X106.75Y-119.82
X106.75Y-122.36
X128.25Y-43.5
X128.25Y-46.04
X128.25Y-48.58
X128.25Y-51.12
X128.25Y-53.66
X128.25Y-56.2
X128.25Y-58.74
X128.25Y-61.28
X128.25Y-63.82
X128.25Y-66.36
X128.25Y-71.5
X128.25Y-74.04
X128.25Y-76.58
X128.25Y-79.12
X128.25Y-81.66
X128.25Y-84.2
X128.25Y-86.74
X128.25Y-89.28
X128.25Y-91.82
X128.25Y-94.36
X128.25Y-99.5
X128.25Y-102.04
X128.25Y-104.58
X128.25Y-107.12
X128.25Y-109.66
X128.25Y-112.2
X128.25Y-114.74
X128.25Y-117.28
X128.25Y-119.82
X128.25Y-122.36
X133.75Y-43.5
X133.75Y-46.04
X133.75Y-48.58
X133.75Y-51.12
X133.75Y-53.66
X133.75Y-56.2
X133.75Y-58.74
X133.75Y-61.28
X133.75Y-63.82
X133.75Y-66.36
X133.75Y-71.5
X133.75Y-74.04
X133.75Y-76.58
X133.75Y-79.12
X133.75Y-81.66
X133.75Y-84.2
X133.75Y-86.74
X133.75Y-89.28
X133.75Y-91.82
X133.75Y-94.36
X133.75Y-99.5
X133.75Y-102.04
X133.75Y-104.58
X133.75Y-107.12
X133.75Y-109.66
X133.75Y-112.2
X133.75Y-114.74
X133.75Y-117.28
X133.75Y-119.82
X133.75Y-122.36
X155.25Y-43.5
X155.25Y-46.04
X155.25Y-48.58
X155.25Y-51.12
X155.25Y-53.66
X155.25Y-56.2
X155.25Y-58.74
X155.25Y-61.28
X155.25Y-63.82
X155.25Y-66.36
X155.25Y-71.5
X155.25Y-74.04
X155.25Y-76.58
X155.25Y-79.12
X155.25Y-81.66
X155.25Y-84.2
X155.25Y-86.74
X155.25Y-89.28
X155.25Y-91.82
X155.25Y-94.36
X155.25Y-99.5
X155.25Y-102.04
X155.25Y-104.58
X155.25Y-107.12
X155.25Y-109.66
X155.25Y-112.2
X155.25Y-114.74
X155.25Y-117.28
X155.25Y-119.82
X155.25Y-122.36
X160.75Y-43.5
X160.75Y-46.04
X160.75Y-48.58
X160.75Y-51.12
X160.75Y-53.66
X160.75Y-56.2
X160.75Y-58.74
X160.75Y-61.28
X160.75Y-63.82
X160.75Y-66.36
X160.75Y-71.5
X160.75Y-74.04
X160.75Y-76.58
X160.75Y-79.12
X160.75Y-81.66
X160.75Y-84.2
X160.75Y-86.74
X160.75Y-89.28
X160.75Y-91.82
X160.75Y-94.36
X160.75Y-99.5
X160.75Y-102.04
X160.75Y-104.58
X160.75Y-107.12
X160.75Y-109.66
X160.75Y-112.2
X160.75Y-114.74
X160.75Y-117.28
X160.75Y-119.82
X160.75Y-122.36
X182.25Y-43.5
X182.25Y-46.04
X182.25Y-48.58
X182.25Y-51.12
X182.25Y-53.66
X182.25Y-56.2
X182.25Y-58.74
X182.25Y-61.28
X182.25Y-63.82
X182.25Y-66.36
X182.25Y-71.5
X182.25Y-74.04
X182.25Y-76.58
X182.25Y-79.12
X182.25Y-81.66
X182.25Y-84.2
X182.25Y-86.74
X182.25Y-89.28
X182.25Y-91.82
X182.25Y-94.36
X182.25Y-99.5
X182.25Y-102.04
X182.25Y-104.58
X182.25Y-107.12
X182.25Y-109.66
X182.25Y-112.2
X182.25Y-114.74
X182.25Y-117.28
X182.25Y-119.82
X182.25Y-122.36
T0
M30
