G04 #@! TF.FileFunction,Soldermask,Top*
%FSLAX46Y46*%
G04 Gerber Fmt 4.6, Leading zero omitted, Abs format (unit mm)*
G04 Created by KiCad (PCBNEW 4.0.1-stable) date 2017/04/09 5:42:53*
%MOMM*%
G01*
G04 APERTURE LIST*
%ADD10C,0.100000*%
%ADD11R,1.150000X0.900000*%
%ADD12R,0.900000X1.150000*%
%ADD13R,2.100000X2.100000*%
%ADD14O,2.100000X2.100000*%
G04 APERTURE END LIST*
D10*
D11*
X168775000Y-45750000D03*
X168775000Y-46750000D03*
X167225000Y-45750000D03*
X167225000Y-46750000D03*
X175775000Y-45750000D03*
X175775000Y-46750000D03*
X174225000Y-45750000D03*
X174225000Y-46750000D03*
D12*
X164250000Y-49975000D03*
X165250000Y-49975000D03*
X164250000Y-51525000D03*
X165250000Y-51525000D03*
D10*
G36*
X168083140Y-50628930D02*
X167393700Y-51207439D01*
X166654494Y-50326488D01*
X167343934Y-49747979D01*
X168083140Y-50628930D01*
X168083140Y-50628930D01*
G37*
G36*
X168849185Y-49986143D02*
X168159745Y-50564652D01*
X167420539Y-49683701D01*
X168109979Y-49105192D01*
X168849185Y-49986143D01*
X168849185Y-49986143D01*
G37*
G36*
X169079461Y-51816299D02*
X168390021Y-52394808D01*
X167650815Y-51513857D01*
X168340255Y-50935348D01*
X169079461Y-51816299D01*
X169079461Y-51816299D01*
G37*
G36*
X169845506Y-51173512D02*
X169156066Y-51752021D01*
X168416860Y-50871070D01*
X169106300Y-50292561D01*
X169845506Y-51173512D01*
X169845506Y-51173512D01*
G37*
D12*
X171000000Y-49975000D03*
X172000000Y-49975000D03*
X171000000Y-51525000D03*
X172000000Y-51525000D03*
D10*
G36*
X174840255Y-50564652D02*
X174150815Y-49986143D01*
X174890021Y-49105192D01*
X175579461Y-49683701D01*
X174840255Y-50564652D01*
X174840255Y-50564652D01*
G37*
G36*
X175606300Y-51207439D02*
X174916860Y-50628930D01*
X175656066Y-49747979D01*
X176345506Y-50326488D01*
X175606300Y-51207439D01*
X175606300Y-51207439D01*
G37*
G36*
X173843934Y-51752021D02*
X173154494Y-51173512D01*
X173893700Y-50292561D01*
X174583140Y-50871070D01*
X173843934Y-51752021D01*
X173843934Y-51752021D01*
G37*
G36*
X174609979Y-52394808D02*
X173920539Y-51816299D01*
X174659745Y-50935348D01*
X175349185Y-51513857D01*
X174609979Y-52394808D01*
X174609979Y-52394808D01*
G37*
D12*
X177750000Y-49975000D03*
X178750000Y-49975000D03*
X177750000Y-51525000D03*
X178750000Y-51525000D03*
D11*
X169025000Y-54500000D03*
X169025000Y-55500000D03*
X167475000Y-54500000D03*
X167475000Y-55500000D03*
X175525000Y-54500000D03*
X175525000Y-55500000D03*
X173975000Y-54500000D03*
X173975000Y-55500000D03*
D12*
X164250000Y-58725000D03*
X165250000Y-58725000D03*
X164250000Y-60275000D03*
X165250000Y-60275000D03*
D10*
G36*
X168090255Y-59314652D02*
X167400815Y-58736143D01*
X168140021Y-57855192D01*
X168829461Y-58433701D01*
X168090255Y-59314652D01*
X168090255Y-59314652D01*
G37*
G36*
X168856300Y-59957439D02*
X168166860Y-59378930D01*
X168906066Y-58497979D01*
X169595506Y-59076488D01*
X168856300Y-59957439D01*
X168856300Y-59957439D01*
G37*
G36*
X167093934Y-60502021D02*
X166404494Y-59923512D01*
X167143700Y-59042561D01*
X167833140Y-59621070D01*
X167093934Y-60502021D01*
X167093934Y-60502021D01*
G37*
G36*
X167859979Y-61144808D02*
X167170539Y-60566299D01*
X167909745Y-59685348D01*
X168599185Y-60263857D01*
X167859979Y-61144808D01*
X167859979Y-61144808D01*
G37*
D12*
X171000000Y-58725000D03*
X172000000Y-58725000D03*
X171000000Y-60275000D03*
X172000000Y-60275000D03*
D10*
G36*
X174833140Y-59378930D02*
X174143700Y-59957439D01*
X173404494Y-59076488D01*
X174093934Y-58497979D01*
X174833140Y-59378930D01*
X174833140Y-59378930D01*
G37*
G36*
X175599185Y-58736143D02*
X174909745Y-59314652D01*
X174170539Y-58433701D01*
X174859979Y-57855192D01*
X175599185Y-58736143D01*
X175599185Y-58736143D01*
G37*
G36*
X175829461Y-60566299D02*
X175140021Y-61144808D01*
X174400815Y-60263857D01*
X175090255Y-59685348D01*
X175829461Y-60566299D01*
X175829461Y-60566299D01*
G37*
G36*
X176595506Y-59923512D02*
X175906066Y-60502021D01*
X175166860Y-59621070D01*
X175856300Y-59042561D01*
X176595506Y-59923512D01*
X176595506Y-59923512D01*
G37*
D12*
X177750000Y-58725000D03*
X178750000Y-58725000D03*
X177750000Y-60275000D03*
X178750000Y-60275000D03*
D11*
X169025000Y-63250000D03*
X169025000Y-64250000D03*
X167475000Y-63250000D03*
X167475000Y-64250000D03*
X175525000Y-63250000D03*
X175525000Y-64250000D03*
X173975000Y-63250000D03*
X173975000Y-64250000D03*
D13*
X182250000Y-43500000D03*
D14*
X182250000Y-46040000D03*
X182250000Y-48580000D03*
X182250000Y-51120000D03*
X182250000Y-53660000D03*
X182250000Y-56200000D03*
X182250000Y-58740000D03*
X182250000Y-61280000D03*
X182250000Y-63820000D03*
X182250000Y-66360000D03*
D13*
X160750000Y-43500000D03*
D14*
X160750000Y-46040000D03*
X160750000Y-48580000D03*
X160750000Y-51120000D03*
X160750000Y-53660000D03*
X160750000Y-56200000D03*
X160750000Y-58740000D03*
X160750000Y-61280000D03*
X160750000Y-63820000D03*
X160750000Y-66360000D03*
D13*
X133750000Y-43500000D03*
D14*
X133750000Y-46040000D03*
X133750000Y-48580000D03*
X133750000Y-51120000D03*
X133750000Y-53660000D03*
X133750000Y-56200000D03*
X133750000Y-58740000D03*
X133750000Y-61280000D03*
X133750000Y-63820000D03*
X133750000Y-66360000D03*
D13*
X155250000Y-43500000D03*
D14*
X155250000Y-46040000D03*
X155250000Y-48580000D03*
X155250000Y-51120000D03*
X155250000Y-53660000D03*
X155250000Y-56200000D03*
X155250000Y-58740000D03*
X155250000Y-61280000D03*
X155250000Y-63820000D03*
X155250000Y-66360000D03*
D11*
X148525000Y-63250000D03*
X148525000Y-64250000D03*
X146975000Y-63250000D03*
X146975000Y-64250000D03*
X142025000Y-63250000D03*
X142025000Y-64250000D03*
X140475000Y-63250000D03*
X140475000Y-64250000D03*
D12*
X150750000Y-58725000D03*
X151750000Y-58725000D03*
X150750000Y-60275000D03*
X151750000Y-60275000D03*
D10*
G36*
X147833140Y-59378930D02*
X147143700Y-59957439D01*
X146404494Y-59076488D01*
X147093934Y-58497979D01*
X147833140Y-59378930D01*
X147833140Y-59378930D01*
G37*
G36*
X148599185Y-58736143D02*
X147909745Y-59314652D01*
X147170539Y-58433701D01*
X147859979Y-57855192D01*
X148599185Y-58736143D01*
X148599185Y-58736143D01*
G37*
G36*
X148829461Y-60566299D02*
X148140021Y-61144808D01*
X147400815Y-60263857D01*
X148090255Y-59685348D01*
X148829461Y-60566299D01*
X148829461Y-60566299D01*
G37*
G36*
X149595506Y-59923512D02*
X148906066Y-60502021D01*
X148166860Y-59621070D01*
X148856300Y-59042561D01*
X149595506Y-59923512D01*
X149595506Y-59923512D01*
G37*
D12*
X144000000Y-58725000D03*
X145000000Y-58725000D03*
X144000000Y-60275000D03*
X145000000Y-60275000D03*
D10*
G36*
X141090255Y-59314652D02*
X140400815Y-58736143D01*
X141140021Y-57855192D01*
X141829461Y-58433701D01*
X141090255Y-59314652D01*
X141090255Y-59314652D01*
G37*
G36*
X141856300Y-59957439D02*
X141166860Y-59378930D01*
X141906066Y-58497979D01*
X142595506Y-59076488D01*
X141856300Y-59957439D01*
X141856300Y-59957439D01*
G37*
G36*
X140093934Y-60502021D02*
X139404494Y-59923512D01*
X140143700Y-59042561D01*
X140833140Y-59621070D01*
X140093934Y-60502021D01*
X140093934Y-60502021D01*
G37*
G36*
X140859979Y-61144808D02*
X140170539Y-60566299D01*
X140909745Y-59685348D01*
X141599185Y-60263857D01*
X140859979Y-61144808D01*
X140859979Y-61144808D01*
G37*
D12*
X137250000Y-58725000D03*
X138250000Y-58725000D03*
X137250000Y-60275000D03*
X138250000Y-60275000D03*
D11*
X148525000Y-54500000D03*
X148525000Y-55500000D03*
X146975000Y-54500000D03*
X146975000Y-55500000D03*
X142025000Y-54500000D03*
X142025000Y-55500000D03*
X140475000Y-54500000D03*
X140475000Y-55500000D03*
D12*
X150750000Y-49975000D03*
X151750000Y-49975000D03*
X150750000Y-51525000D03*
X151750000Y-51525000D03*
D10*
G36*
X147840255Y-50564652D02*
X147150815Y-49986143D01*
X147890021Y-49105192D01*
X148579461Y-49683701D01*
X147840255Y-50564652D01*
X147840255Y-50564652D01*
G37*
G36*
X148606300Y-51207439D02*
X147916860Y-50628930D01*
X148656066Y-49747979D01*
X149345506Y-50326488D01*
X148606300Y-51207439D01*
X148606300Y-51207439D01*
G37*
G36*
X146843934Y-51752021D02*
X146154494Y-51173512D01*
X146893700Y-50292561D01*
X147583140Y-50871070D01*
X146843934Y-51752021D01*
X146843934Y-51752021D01*
G37*
G36*
X147609979Y-52394808D02*
X146920539Y-51816299D01*
X147659745Y-50935348D01*
X148349185Y-51513857D01*
X147609979Y-52394808D01*
X147609979Y-52394808D01*
G37*
D12*
X144000000Y-49975000D03*
X145000000Y-49975000D03*
X144000000Y-51525000D03*
X145000000Y-51525000D03*
D10*
G36*
X141083140Y-50628930D02*
X140393700Y-51207439D01*
X139654494Y-50326488D01*
X140343934Y-49747979D01*
X141083140Y-50628930D01*
X141083140Y-50628930D01*
G37*
G36*
X141849185Y-49986143D02*
X141159745Y-50564652D01*
X140420539Y-49683701D01*
X141109979Y-49105192D01*
X141849185Y-49986143D01*
X141849185Y-49986143D01*
G37*
G36*
X142079461Y-51816299D02*
X141390021Y-52394808D01*
X140650815Y-51513857D01*
X141340255Y-50935348D01*
X142079461Y-51816299D01*
X142079461Y-51816299D01*
G37*
G36*
X142845506Y-51173512D02*
X142156066Y-51752021D01*
X141416860Y-50871070D01*
X142106300Y-50292561D01*
X142845506Y-51173512D01*
X142845506Y-51173512D01*
G37*
D12*
X137250000Y-49975000D03*
X138250000Y-49975000D03*
X137250000Y-51525000D03*
X138250000Y-51525000D03*
D11*
X148775000Y-45750000D03*
X148775000Y-46750000D03*
X147225000Y-45750000D03*
X147225000Y-46750000D03*
X141775000Y-45750000D03*
X141775000Y-46750000D03*
X140225000Y-45750000D03*
X140225000Y-46750000D03*
X114775000Y-45750000D03*
X114775000Y-46750000D03*
X113225000Y-45750000D03*
X113225000Y-46750000D03*
X121775000Y-45750000D03*
X121775000Y-46750000D03*
X120225000Y-45750000D03*
X120225000Y-46750000D03*
D12*
X110250000Y-49975000D03*
X111250000Y-49975000D03*
X110250000Y-51525000D03*
X111250000Y-51525000D03*
D10*
G36*
X114083140Y-50628930D02*
X113393700Y-51207439D01*
X112654494Y-50326488D01*
X113343934Y-49747979D01*
X114083140Y-50628930D01*
X114083140Y-50628930D01*
G37*
G36*
X114849185Y-49986143D02*
X114159745Y-50564652D01*
X113420539Y-49683701D01*
X114109979Y-49105192D01*
X114849185Y-49986143D01*
X114849185Y-49986143D01*
G37*
G36*
X115079461Y-51816299D02*
X114390021Y-52394808D01*
X113650815Y-51513857D01*
X114340255Y-50935348D01*
X115079461Y-51816299D01*
X115079461Y-51816299D01*
G37*
G36*
X115845506Y-51173512D02*
X115156066Y-51752021D01*
X114416860Y-50871070D01*
X115106300Y-50292561D01*
X115845506Y-51173512D01*
X115845506Y-51173512D01*
G37*
D12*
X117000000Y-49975000D03*
X118000000Y-49975000D03*
X117000000Y-51525000D03*
X118000000Y-51525000D03*
D10*
G36*
X120840255Y-50564652D02*
X120150815Y-49986143D01*
X120890021Y-49105192D01*
X121579461Y-49683701D01*
X120840255Y-50564652D01*
X120840255Y-50564652D01*
G37*
G36*
X121606300Y-51207439D02*
X120916860Y-50628930D01*
X121656066Y-49747979D01*
X122345506Y-50326488D01*
X121606300Y-51207439D01*
X121606300Y-51207439D01*
G37*
G36*
X119843934Y-51752021D02*
X119154494Y-51173512D01*
X119893700Y-50292561D01*
X120583140Y-50871070D01*
X119843934Y-51752021D01*
X119843934Y-51752021D01*
G37*
G36*
X120609979Y-52394808D02*
X119920539Y-51816299D01*
X120659745Y-50935348D01*
X121349185Y-51513857D01*
X120609979Y-52394808D01*
X120609979Y-52394808D01*
G37*
D12*
X123750000Y-49975000D03*
X124750000Y-49975000D03*
X123750000Y-51525000D03*
X124750000Y-51525000D03*
D11*
X115025000Y-54500000D03*
X115025000Y-55500000D03*
X113475000Y-54500000D03*
X113475000Y-55500000D03*
X121525000Y-54500000D03*
X121525000Y-55500000D03*
X119975000Y-54500000D03*
X119975000Y-55500000D03*
D12*
X110250000Y-58725000D03*
X111250000Y-58725000D03*
X110250000Y-60275000D03*
X111250000Y-60275000D03*
D10*
G36*
X114090255Y-59314652D02*
X113400815Y-58736143D01*
X114140021Y-57855192D01*
X114829461Y-58433701D01*
X114090255Y-59314652D01*
X114090255Y-59314652D01*
G37*
G36*
X114856300Y-59957439D02*
X114166860Y-59378930D01*
X114906066Y-58497979D01*
X115595506Y-59076488D01*
X114856300Y-59957439D01*
X114856300Y-59957439D01*
G37*
G36*
X113093934Y-60502021D02*
X112404494Y-59923512D01*
X113143700Y-59042561D01*
X113833140Y-59621070D01*
X113093934Y-60502021D01*
X113093934Y-60502021D01*
G37*
G36*
X113859979Y-61144808D02*
X113170539Y-60566299D01*
X113909745Y-59685348D01*
X114599185Y-60263857D01*
X113859979Y-61144808D01*
X113859979Y-61144808D01*
G37*
D12*
X117000000Y-58725000D03*
X118000000Y-58725000D03*
X117000000Y-60275000D03*
X118000000Y-60275000D03*
D10*
G36*
X120833140Y-59378930D02*
X120143700Y-59957439D01*
X119404494Y-59076488D01*
X120093934Y-58497979D01*
X120833140Y-59378930D01*
X120833140Y-59378930D01*
G37*
G36*
X121599185Y-58736143D02*
X120909745Y-59314652D01*
X120170539Y-58433701D01*
X120859979Y-57855192D01*
X121599185Y-58736143D01*
X121599185Y-58736143D01*
G37*
G36*
X121829461Y-60566299D02*
X121140021Y-61144808D01*
X120400815Y-60263857D01*
X121090255Y-59685348D01*
X121829461Y-60566299D01*
X121829461Y-60566299D01*
G37*
G36*
X122595506Y-59923512D02*
X121906066Y-60502021D01*
X121166860Y-59621070D01*
X121856300Y-59042561D01*
X122595506Y-59923512D01*
X122595506Y-59923512D01*
G37*
D12*
X123750000Y-58725000D03*
X124750000Y-58725000D03*
X123750000Y-60275000D03*
X124750000Y-60275000D03*
D11*
X115025000Y-63250000D03*
X115025000Y-64250000D03*
X113475000Y-63250000D03*
X113475000Y-64250000D03*
X121525000Y-63250000D03*
X121525000Y-64250000D03*
X119975000Y-63250000D03*
X119975000Y-64250000D03*
D13*
X128250000Y-43500000D03*
D14*
X128250000Y-46040000D03*
X128250000Y-48580000D03*
X128250000Y-51120000D03*
X128250000Y-53660000D03*
X128250000Y-56200000D03*
X128250000Y-58740000D03*
X128250000Y-61280000D03*
X128250000Y-63820000D03*
X128250000Y-66360000D03*
D13*
X106750000Y-43500000D03*
D14*
X106750000Y-46040000D03*
X106750000Y-48580000D03*
X106750000Y-51120000D03*
X106750000Y-53660000D03*
X106750000Y-56200000D03*
X106750000Y-58740000D03*
X106750000Y-61280000D03*
X106750000Y-63820000D03*
X106750000Y-66360000D03*
D13*
X106750000Y-71500000D03*
D14*
X106750000Y-74040000D03*
X106750000Y-76580000D03*
X106750000Y-79120000D03*
X106750000Y-81660000D03*
X106750000Y-84200000D03*
X106750000Y-86740000D03*
X106750000Y-89280000D03*
X106750000Y-91820000D03*
X106750000Y-94360000D03*
D13*
X128250000Y-71500000D03*
D14*
X128250000Y-74040000D03*
X128250000Y-76580000D03*
X128250000Y-79120000D03*
X128250000Y-81660000D03*
X128250000Y-84200000D03*
X128250000Y-86740000D03*
X128250000Y-89280000D03*
X128250000Y-91820000D03*
X128250000Y-94360000D03*
D11*
X121525000Y-91250000D03*
X121525000Y-92250000D03*
X119975000Y-91250000D03*
X119975000Y-92250000D03*
X115025000Y-91250000D03*
X115025000Y-92250000D03*
X113475000Y-91250000D03*
X113475000Y-92250000D03*
D12*
X123750000Y-86725000D03*
X124750000Y-86725000D03*
X123750000Y-88275000D03*
X124750000Y-88275000D03*
D10*
G36*
X120833140Y-87378930D02*
X120143700Y-87957439D01*
X119404494Y-87076488D01*
X120093934Y-86497979D01*
X120833140Y-87378930D01*
X120833140Y-87378930D01*
G37*
G36*
X121599185Y-86736143D02*
X120909745Y-87314652D01*
X120170539Y-86433701D01*
X120859979Y-85855192D01*
X121599185Y-86736143D01*
X121599185Y-86736143D01*
G37*
G36*
X121829461Y-88566299D02*
X121140021Y-89144808D01*
X120400815Y-88263857D01*
X121090255Y-87685348D01*
X121829461Y-88566299D01*
X121829461Y-88566299D01*
G37*
G36*
X122595506Y-87923512D02*
X121906066Y-88502021D01*
X121166860Y-87621070D01*
X121856300Y-87042561D01*
X122595506Y-87923512D01*
X122595506Y-87923512D01*
G37*
D12*
X117000000Y-86725000D03*
X118000000Y-86725000D03*
X117000000Y-88275000D03*
X118000000Y-88275000D03*
D10*
G36*
X114090255Y-87314652D02*
X113400815Y-86736143D01*
X114140021Y-85855192D01*
X114829461Y-86433701D01*
X114090255Y-87314652D01*
X114090255Y-87314652D01*
G37*
G36*
X114856300Y-87957439D02*
X114166860Y-87378930D01*
X114906066Y-86497979D01*
X115595506Y-87076488D01*
X114856300Y-87957439D01*
X114856300Y-87957439D01*
G37*
G36*
X113093934Y-88502021D02*
X112404494Y-87923512D01*
X113143700Y-87042561D01*
X113833140Y-87621070D01*
X113093934Y-88502021D01*
X113093934Y-88502021D01*
G37*
G36*
X113859979Y-89144808D02*
X113170539Y-88566299D01*
X113909745Y-87685348D01*
X114599185Y-88263857D01*
X113859979Y-89144808D01*
X113859979Y-89144808D01*
G37*
D12*
X110250000Y-86725000D03*
X111250000Y-86725000D03*
X110250000Y-88275000D03*
X111250000Y-88275000D03*
D11*
X121525000Y-82500000D03*
X121525000Y-83500000D03*
X119975000Y-82500000D03*
X119975000Y-83500000D03*
X115025000Y-82500000D03*
X115025000Y-83500000D03*
X113475000Y-82500000D03*
X113475000Y-83500000D03*
D12*
X123750000Y-77975000D03*
X124750000Y-77975000D03*
X123750000Y-79525000D03*
X124750000Y-79525000D03*
D10*
G36*
X120840255Y-78564652D02*
X120150815Y-77986143D01*
X120890021Y-77105192D01*
X121579461Y-77683701D01*
X120840255Y-78564652D01*
X120840255Y-78564652D01*
G37*
G36*
X121606300Y-79207439D02*
X120916860Y-78628930D01*
X121656066Y-77747979D01*
X122345506Y-78326488D01*
X121606300Y-79207439D01*
X121606300Y-79207439D01*
G37*
G36*
X119843934Y-79752021D02*
X119154494Y-79173512D01*
X119893700Y-78292561D01*
X120583140Y-78871070D01*
X119843934Y-79752021D01*
X119843934Y-79752021D01*
G37*
G36*
X120609979Y-80394808D02*
X119920539Y-79816299D01*
X120659745Y-78935348D01*
X121349185Y-79513857D01*
X120609979Y-80394808D01*
X120609979Y-80394808D01*
G37*
D12*
X117000000Y-77975000D03*
X118000000Y-77975000D03*
X117000000Y-79525000D03*
X118000000Y-79525000D03*
D10*
G36*
X114083140Y-78628930D02*
X113393700Y-79207439D01*
X112654494Y-78326488D01*
X113343934Y-77747979D01*
X114083140Y-78628930D01*
X114083140Y-78628930D01*
G37*
G36*
X114849185Y-77986143D02*
X114159745Y-78564652D01*
X113420539Y-77683701D01*
X114109979Y-77105192D01*
X114849185Y-77986143D01*
X114849185Y-77986143D01*
G37*
G36*
X115079461Y-79816299D02*
X114390021Y-80394808D01*
X113650815Y-79513857D01*
X114340255Y-78935348D01*
X115079461Y-79816299D01*
X115079461Y-79816299D01*
G37*
G36*
X115845506Y-79173512D02*
X115156066Y-79752021D01*
X114416860Y-78871070D01*
X115106300Y-78292561D01*
X115845506Y-79173512D01*
X115845506Y-79173512D01*
G37*
D12*
X110250000Y-77975000D03*
X111250000Y-77975000D03*
X110250000Y-79525000D03*
X111250000Y-79525000D03*
D11*
X121775000Y-73750000D03*
X121775000Y-74750000D03*
X120225000Y-73750000D03*
X120225000Y-74750000D03*
X114775000Y-73750000D03*
X114775000Y-74750000D03*
X113225000Y-73750000D03*
X113225000Y-74750000D03*
X141775000Y-73750000D03*
X141775000Y-74750000D03*
X140225000Y-73750000D03*
X140225000Y-74750000D03*
X148775000Y-73750000D03*
X148775000Y-74750000D03*
X147225000Y-73750000D03*
X147225000Y-74750000D03*
D12*
X137250000Y-77975000D03*
X138250000Y-77975000D03*
X137250000Y-79525000D03*
X138250000Y-79525000D03*
D10*
G36*
X141083140Y-78628930D02*
X140393700Y-79207439D01*
X139654494Y-78326488D01*
X140343934Y-77747979D01*
X141083140Y-78628930D01*
X141083140Y-78628930D01*
G37*
G36*
X141849185Y-77986143D02*
X141159745Y-78564652D01*
X140420539Y-77683701D01*
X141109979Y-77105192D01*
X141849185Y-77986143D01*
X141849185Y-77986143D01*
G37*
G36*
X142079461Y-79816299D02*
X141390021Y-80394808D01*
X140650815Y-79513857D01*
X141340255Y-78935348D01*
X142079461Y-79816299D01*
X142079461Y-79816299D01*
G37*
G36*
X142845506Y-79173512D02*
X142156066Y-79752021D01*
X141416860Y-78871070D01*
X142106300Y-78292561D01*
X142845506Y-79173512D01*
X142845506Y-79173512D01*
G37*
D12*
X144000000Y-77975000D03*
X145000000Y-77975000D03*
X144000000Y-79525000D03*
X145000000Y-79525000D03*
D10*
G36*
X147840255Y-78564652D02*
X147150815Y-77986143D01*
X147890021Y-77105192D01*
X148579461Y-77683701D01*
X147840255Y-78564652D01*
X147840255Y-78564652D01*
G37*
G36*
X148606300Y-79207439D02*
X147916860Y-78628930D01*
X148656066Y-77747979D01*
X149345506Y-78326488D01*
X148606300Y-79207439D01*
X148606300Y-79207439D01*
G37*
G36*
X146843934Y-79752021D02*
X146154494Y-79173512D01*
X146893700Y-78292561D01*
X147583140Y-78871070D01*
X146843934Y-79752021D01*
X146843934Y-79752021D01*
G37*
G36*
X147609979Y-80394808D02*
X146920539Y-79816299D01*
X147659745Y-78935348D01*
X148349185Y-79513857D01*
X147609979Y-80394808D01*
X147609979Y-80394808D01*
G37*
D12*
X150750000Y-77975000D03*
X151750000Y-77975000D03*
X150750000Y-79525000D03*
X151750000Y-79525000D03*
D11*
X142025000Y-82500000D03*
X142025000Y-83500000D03*
X140475000Y-82500000D03*
X140475000Y-83500000D03*
X148525000Y-82500000D03*
X148525000Y-83500000D03*
X146975000Y-82500000D03*
X146975000Y-83500000D03*
D12*
X137250000Y-86725000D03*
X138250000Y-86725000D03*
X137250000Y-88275000D03*
X138250000Y-88275000D03*
D10*
G36*
X141090255Y-87314652D02*
X140400815Y-86736143D01*
X141140021Y-85855192D01*
X141829461Y-86433701D01*
X141090255Y-87314652D01*
X141090255Y-87314652D01*
G37*
G36*
X141856300Y-87957439D02*
X141166860Y-87378930D01*
X141906066Y-86497979D01*
X142595506Y-87076488D01*
X141856300Y-87957439D01*
X141856300Y-87957439D01*
G37*
G36*
X140093934Y-88502021D02*
X139404494Y-87923512D01*
X140143700Y-87042561D01*
X140833140Y-87621070D01*
X140093934Y-88502021D01*
X140093934Y-88502021D01*
G37*
G36*
X140859979Y-89144808D02*
X140170539Y-88566299D01*
X140909745Y-87685348D01*
X141599185Y-88263857D01*
X140859979Y-89144808D01*
X140859979Y-89144808D01*
G37*
D12*
X144000000Y-86725000D03*
X145000000Y-86725000D03*
X144000000Y-88275000D03*
X145000000Y-88275000D03*
D10*
G36*
X147833140Y-87378930D02*
X147143700Y-87957439D01*
X146404494Y-87076488D01*
X147093934Y-86497979D01*
X147833140Y-87378930D01*
X147833140Y-87378930D01*
G37*
G36*
X148599185Y-86736143D02*
X147909745Y-87314652D01*
X147170539Y-86433701D01*
X147859979Y-85855192D01*
X148599185Y-86736143D01*
X148599185Y-86736143D01*
G37*
G36*
X148829461Y-88566299D02*
X148140021Y-89144808D01*
X147400815Y-88263857D01*
X148090255Y-87685348D01*
X148829461Y-88566299D01*
X148829461Y-88566299D01*
G37*
G36*
X149595506Y-87923512D02*
X148906066Y-88502021D01*
X148166860Y-87621070D01*
X148856300Y-87042561D01*
X149595506Y-87923512D01*
X149595506Y-87923512D01*
G37*
D12*
X150750000Y-86725000D03*
X151750000Y-86725000D03*
X150750000Y-88275000D03*
X151750000Y-88275000D03*
D11*
X142025000Y-91250000D03*
X142025000Y-92250000D03*
X140475000Y-91250000D03*
X140475000Y-92250000D03*
X148525000Y-91250000D03*
X148525000Y-92250000D03*
X146975000Y-91250000D03*
X146975000Y-92250000D03*
D13*
X155250000Y-71500000D03*
D14*
X155250000Y-74040000D03*
X155250000Y-76580000D03*
X155250000Y-79120000D03*
X155250000Y-81660000D03*
X155250000Y-84200000D03*
X155250000Y-86740000D03*
X155250000Y-89280000D03*
X155250000Y-91820000D03*
X155250000Y-94360000D03*
D13*
X133750000Y-71500000D03*
D14*
X133750000Y-74040000D03*
X133750000Y-76580000D03*
X133750000Y-79120000D03*
X133750000Y-81660000D03*
X133750000Y-84200000D03*
X133750000Y-86740000D03*
X133750000Y-89280000D03*
X133750000Y-91820000D03*
X133750000Y-94360000D03*
D13*
X160750000Y-71500000D03*
D14*
X160750000Y-74040000D03*
X160750000Y-76580000D03*
X160750000Y-79120000D03*
X160750000Y-81660000D03*
X160750000Y-84200000D03*
X160750000Y-86740000D03*
X160750000Y-89280000D03*
X160750000Y-91820000D03*
X160750000Y-94360000D03*
D13*
X182250000Y-71500000D03*
D14*
X182250000Y-74040000D03*
X182250000Y-76580000D03*
X182250000Y-79120000D03*
X182250000Y-81660000D03*
X182250000Y-84200000D03*
X182250000Y-86740000D03*
X182250000Y-89280000D03*
X182250000Y-91820000D03*
X182250000Y-94360000D03*
D11*
X175525000Y-91250000D03*
X175525000Y-92250000D03*
X173975000Y-91250000D03*
X173975000Y-92250000D03*
X169025000Y-91250000D03*
X169025000Y-92250000D03*
X167475000Y-91250000D03*
X167475000Y-92250000D03*
D12*
X177750000Y-86725000D03*
X178750000Y-86725000D03*
X177750000Y-88275000D03*
X178750000Y-88275000D03*
D10*
G36*
X174833140Y-87378930D02*
X174143700Y-87957439D01*
X173404494Y-87076488D01*
X174093934Y-86497979D01*
X174833140Y-87378930D01*
X174833140Y-87378930D01*
G37*
G36*
X175599185Y-86736143D02*
X174909745Y-87314652D01*
X174170539Y-86433701D01*
X174859979Y-85855192D01*
X175599185Y-86736143D01*
X175599185Y-86736143D01*
G37*
G36*
X175829461Y-88566299D02*
X175140021Y-89144808D01*
X174400815Y-88263857D01*
X175090255Y-87685348D01*
X175829461Y-88566299D01*
X175829461Y-88566299D01*
G37*
G36*
X176595506Y-87923512D02*
X175906066Y-88502021D01*
X175166860Y-87621070D01*
X175856300Y-87042561D01*
X176595506Y-87923512D01*
X176595506Y-87923512D01*
G37*
D12*
X171000000Y-86725000D03*
X172000000Y-86725000D03*
X171000000Y-88275000D03*
X172000000Y-88275000D03*
D10*
G36*
X168090255Y-87314652D02*
X167400815Y-86736143D01*
X168140021Y-85855192D01*
X168829461Y-86433701D01*
X168090255Y-87314652D01*
X168090255Y-87314652D01*
G37*
G36*
X168856300Y-87957439D02*
X168166860Y-87378930D01*
X168906066Y-86497979D01*
X169595506Y-87076488D01*
X168856300Y-87957439D01*
X168856300Y-87957439D01*
G37*
G36*
X167093934Y-88502021D02*
X166404494Y-87923512D01*
X167143700Y-87042561D01*
X167833140Y-87621070D01*
X167093934Y-88502021D01*
X167093934Y-88502021D01*
G37*
G36*
X167859979Y-89144808D02*
X167170539Y-88566299D01*
X167909745Y-87685348D01*
X168599185Y-88263857D01*
X167859979Y-89144808D01*
X167859979Y-89144808D01*
G37*
D12*
X164250000Y-86725000D03*
X165250000Y-86725000D03*
X164250000Y-88275000D03*
X165250000Y-88275000D03*
D11*
X175525000Y-82500000D03*
X175525000Y-83500000D03*
X173975000Y-82500000D03*
X173975000Y-83500000D03*
X169025000Y-82500000D03*
X169025000Y-83500000D03*
X167475000Y-82500000D03*
X167475000Y-83500000D03*
D12*
X177750000Y-77975000D03*
X178750000Y-77975000D03*
X177750000Y-79525000D03*
X178750000Y-79525000D03*
D10*
G36*
X174840255Y-78564652D02*
X174150815Y-77986143D01*
X174890021Y-77105192D01*
X175579461Y-77683701D01*
X174840255Y-78564652D01*
X174840255Y-78564652D01*
G37*
G36*
X175606300Y-79207439D02*
X174916860Y-78628930D01*
X175656066Y-77747979D01*
X176345506Y-78326488D01*
X175606300Y-79207439D01*
X175606300Y-79207439D01*
G37*
G36*
X173843934Y-79752021D02*
X173154494Y-79173512D01*
X173893700Y-78292561D01*
X174583140Y-78871070D01*
X173843934Y-79752021D01*
X173843934Y-79752021D01*
G37*
G36*
X174609979Y-80394808D02*
X173920539Y-79816299D01*
X174659745Y-78935348D01*
X175349185Y-79513857D01*
X174609979Y-80394808D01*
X174609979Y-80394808D01*
G37*
D12*
X171000000Y-77975000D03*
X172000000Y-77975000D03*
X171000000Y-79525000D03*
X172000000Y-79525000D03*
D10*
G36*
X168083140Y-78628930D02*
X167393700Y-79207439D01*
X166654494Y-78326488D01*
X167343934Y-77747979D01*
X168083140Y-78628930D01*
X168083140Y-78628930D01*
G37*
G36*
X168849185Y-77986143D02*
X168159745Y-78564652D01*
X167420539Y-77683701D01*
X168109979Y-77105192D01*
X168849185Y-77986143D01*
X168849185Y-77986143D01*
G37*
G36*
X169079461Y-79816299D02*
X168390021Y-80394808D01*
X167650815Y-79513857D01*
X168340255Y-78935348D01*
X169079461Y-79816299D01*
X169079461Y-79816299D01*
G37*
G36*
X169845506Y-79173512D02*
X169156066Y-79752021D01*
X168416860Y-78871070D01*
X169106300Y-78292561D01*
X169845506Y-79173512D01*
X169845506Y-79173512D01*
G37*
D12*
X164250000Y-77975000D03*
X165250000Y-77975000D03*
X164250000Y-79525000D03*
X165250000Y-79525000D03*
D11*
X175775000Y-73750000D03*
X175775000Y-74750000D03*
X174225000Y-73750000D03*
X174225000Y-74750000D03*
X168775000Y-73750000D03*
X168775000Y-74750000D03*
X167225000Y-73750000D03*
X167225000Y-74750000D03*
X168775000Y-101750000D03*
X168775000Y-102750000D03*
X167225000Y-101750000D03*
X167225000Y-102750000D03*
X175775000Y-101750000D03*
X175775000Y-102750000D03*
X174225000Y-101750000D03*
X174225000Y-102750000D03*
D12*
X164250000Y-105975000D03*
X165250000Y-105975000D03*
X164250000Y-107525000D03*
X165250000Y-107525000D03*
D10*
G36*
X168083140Y-106628930D02*
X167393700Y-107207439D01*
X166654494Y-106326488D01*
X167343934Y-105747979D01*
X168083140Y-106628930D01*
X168083140Y-106628930D01*
G37*
G36*
X168849185Y-105986143D02*
X168159745Y-106564652D01*
X167420539Y-105683701D01*
X168109979Y-105105192D01*
X168849185Y-105986143D01*
X168849185Y-105986143D01*
G37*
G36*
X169079461Y-107816299D02*
X168390021Y-108394808D01*
X167650815Y-107513857D01*
X168340255Y-106935348D01*
X169079461Y-107816299D01*
X169079461Y-107816299D01*
G37*
G36*
X169845506Y-107173512D02*
X169156066Y-107752021D01*
X168416860Y-106871070D01*
X169106300Y-106292561D01*
X169845506Y-107173512D01*
X169845506Y-107173512D01*
G37*
D12*
X171000000Y-105975000D03*
X172000000Y-105975000D03*
X171000000Y-107525000D03*
X172000000Y-107525000D03*
D10*
G36*
X174840255Y-106564652D02*
X174150815Y-105986143D01*
X174890021Y-105105192D01*
X175579461Y-105683701D01*
X174840255Y-106564652D01*
X174840255Y-106564652D01*
G37*
G36*
X175606300Y-107207439D02*
X174916860Y-106628930D01*
X175656066Y-105747979D01*
X176345506Y-106326488D01*
X175606300Y-107207439D01*
X175606300Y-107207439D01*
G37*
G36*
X173843934Y-107752021D02*
X173154494Y-107173512D01*
X173893700Y-106292561D01*
X174583140Y-106871070D01*
X173843934Y-107752021D01*
X173843934Y-107752021D01*
G37*
G36*
X174609979Y-108394808D02*
X173920539Y-107816299D01*
X174659745Y-106935348D01*
X175349185Y-107513857D01*
X174609979Y-108394808D01*
X174609979Y-108394808D01*
G37*
D12*
X177750000Y-105975000D03*
X178750000Y-105975000D03*
X177750000Y-107525000D03*
X178750000Y-107525000D03*
D11*
X169025000Y-110500000D03*
X169025000Y-111500000D03*
X167475000Y-110500000D03*
X167475000Y-111500000D03*
X175525000Y-110500000D03*
X175525000Y-111500000D03*
X173975000Y-110500000D03*
X173975000Y-111500000D03*
D12*
X164250000Y-114725000D03*
X165250000Y-114725000D03*
X164250000Y-116275000D03*
X165250000Y-116275000D03*
D10*
G36*
X168090255Y-115314652D02*
X167400815Y-114736143D01*
X168140021Y-113855192D01*
X168829461Y-114433701D01*
X168090255Y-115314652D01*
X168090255Y-115314652D01*
G37*
G36*
X168856300Y-115957439D02*
X168166860Y-115378930D01*
X168906066Y-114497979D01*
X169595506Y-115076488D01*
X168856300Y-115957439D01*
X168856300Y-115957439D01*
G37*
G36*
X167093934Y-116502021D02*
X166404494Y-115923512D01*
X167143700Y-115042561D01*
X167833140Y-115621070D01*
X167093934Y-116502021D01*
X167093934Y-116502021D01*
G37*
G36*
X167859979Y-117144808D02*
X167170539Y-116566299D01*
X167909745Y-115685348D01*
X168599185Y-116263857D01*
X167859979Y-117144808D01*
X167859979Y-117144808D01*
G37*
D12*
X171000000Y-114725000D03*
X172000000Y-114725000D03*
X171000000Y-116275000D03*
X172000000Y-116275000D03*
D10*
G36*
X174833140Y-115378930D02*
X174143700Y-115957439D01*
X173404494Y-115076488D01*
X174093934Y-114497979D01*
X174833140Y-115378930D01*
X174833140Y-115378930D01*
G37*
G36*
X175599185Y-114736143D02*
X174909745Y-115314652D01*
X174170539Y-114433701D01*
X174859979Y-113855192D01*
X175599185Y-114736143D01*
X175599185Y-114736143D01*
G37*
G36*
X175829461Y-116566299D02*
X175140021Y-117144808D01*
X174400815Y-116263857D01*
X175090255Y-115685348D01*
X175829461Y-116566299D01*
X175829461Y-116566299D01*
G37*
G36*
X176595506Y-115923512D02*
X175906066Y-116502021D01*
X175166860Y-115621070D01*
X175856300Y-115042561D01*
X176595506Y-115923512D01*
X176595506Y-115923512D01*
G37*
D12*
X177750000Y-114725000D03*
X178750000Y-114725000D03*
X177750000Y-116275000D03*
X178750000Y-116275000D03*
D11*
X169025000Y-119250000D03*
X169025000Y-120250000D03*
X167475000Y-119250000D03*
X167475000Y-120250000D03*
X175525000Y-119250000D03*
X175525000Y-120250000D03*
X173975000Y-119250000D03*
X173975000Y-120250000D03*
D13*
X182250000Y-99500000D03*
D14*
X182250000Y-102040000D03*
X182250000Y-104580000D03*
X182250000Y-107120000D03*
X182250000Y-109660000D03*
X182250000Y-112200000D03*
X182250000Y-114740000D03*
X182250000Y-117280000D03*
X182250000Y-119820000D03*
X182250000Y-122360000D03*
D13*
X160750000Y-99500000D03*
D14*
X160750000Y-102040000D03*
X160750000Y-104580000D03*
X160750000Y-107120000D03*
X160750000Y-109660000D03*
X160750000Y-112200000D03*
X160750000Y-114740000D03*
X160750000Y-117280000D03*
X160750000Y-119820000D03*
X160750000Y-122360000D03*
D13*
X133750000Y-99500000D03*
D14*
X133750000Y-102040000D03*
X133750000Y-104580000D03*
X133750000Y-107120000D03*
X133750000Y-109660000D03*
X133750000Y-112200000D03*
X133750000Y-114740000D03*
X133750000Y-117280000D03*
X133750000Y-119820000D03*
X133750000Y-122360000D03*
D13*
X155250000Y-99500000D03*
D14*
X155250000Y-102040000D03*
X155250000Y-104580000D03*
X155250000Y-107120000D03*
X155250000Y-109660000D03*
X155250000Y-112200000D03*
X155250000Y-114740000D03*
X155250000Y-117280000D03*
X155250000Y-119820000D03*
X155250000Y-122360000D03*
D11*
X148525000Y-119250000D03*
X148525000Y-120250000D03*
X146975000Y-119250000D03*
X146975000Y-120250000D03*
X142025000Y-119250000D03*
X142025000Y-120250000D03*
X140475000Y-119250000D03*
X140475000Y-120250000D03*
D12*
X150750000Y-114725000D03*
X151750000Y-114725000D03*
X150750000Y-116275000D03*
X151750000Y-116275000D03*
D10*
G36*
X147833140Y-115378930D02*
X147143700Y-115957439D01*
X146404494Y-115076488D01*
X147093934Y-114497979D01*
X147833140Y-115378930D01*
X147833140Y-115378930D01*
G37*
G36*
X148599185Y-114736143D02*
X147909745Y-115314652D01*
X147170539Y-114433701D01*
X147859979Y-113855192D01*
X148599185Y-114736143D01*
X148599185Y-114736143D01*
G37*
G36*
X148829461Y-116566299D02*
X148140021Y-117144808D01*
X147400815Y-116263857D01*
X148090255Y-115685348D01*
X148829461Y-116566299D01*
X148829461Y-116566299D01*
G37*
G36*
X149595506Y-115923512D02*
X148906066Y-116502021D01*
X148166860Y-115621070D01*
X148856300Y-115042561D01*
X149595506Y-115923512D01*
X149595506Y-115923512D01*
G37*
D12*
X144000000Y-114725000D03*
X145000000Y-114725000D03*
X144000000Y-116275000D03*
X145000000Y-116275000D03*
D10*
G36*
X141090255Y-115314652D02*
X140400815Y-114736143D01*
X141140021Y-113855192D01*
X141829461Y-114433701D01*
X141090255Y-115314652D01*
X141090255Y-115314652D01*
G37*
G36*
X141856300Y-115957439D02*
X141166860Y-115378930D01*
X141906066Y-114497979D01*
X142595506Y-115076488D01*
X141856300Y-115957439D01*
X141856300Y-115957439D01*
G37*
G36*
X140093934Y-116502021D02*
X139404494Y-115923512D01*
X140143700Y-115042561D01*
X140833140Y-115621070D01*
X140093934Y-116502021D01*
X140093934Y-116502021D01*
G37*
G36*
X140859979Y-117144808D02*
X140170539Y-116566299D01*
X140909745Y-115685348D01*
X141599185Y-116263857D01*
X140859979Y-117144808D01*
X140859979Y-117144808D01*
G37*
D12*
X137250000Y-114725000D03*
X138250000Y-114725000D03*
X137250000Y-116275000D03*
X138250000Y-116275000D03*
D11*
X148525000Y-110500000D03*
X148525000Y-111500000D03*
X146975000Y-110500000D03*
X146975000Y-111500000D03*
X142025000Y-110500000D03*
X142025000Y-111500000D03*
X140475000Y-110500000D03*
X140475000Y-111500000D03*
D12*
X150750000Y-105975000D03*
X151750000Y-105975000D03*
X150750000Y-107525000D03*
X151750000Y-107525000D03*
D10*
G36*
X147840255Y-106564652D02*
X147150815Y-105986143D01*
X147890021Y-105105192D01*
X148579461Y-105683701D01*
X147840255Y-106564652D01*
X147840255Y-106564652D01*
G37*
G36*
X148606300Y-107207439D02*
X147916860Y-106628930D01*
X148656066Y-105747979D01*
X149345506Y-106326488D01*
X148606300Y-107207439D01*
X148606300Y-107207439D01*
G37*
G36*
X146843934Y-107752021D02*
X146154494Y-107173512D01*
X146893700Y-106292561D01*
X147583140Y-106871070D01*
X146843934Y-107752021D01*
X146843934Y-107752021D01*
G37*
G36*
X147609979Y-108394808D02*
X146920539Y-107816299D01*
X147659745Y-106935348D01*
X148349185Y-107513857D01*
X147609979Y-108394808D01*
X147609979Y-108394808D01*
G37*
D12*
X144000000Y-105975000D03*
X145000000Y-105975000D03*
X144000000Y-107525000D03*
X145000000Y-107525000D03*
D10*
G36*
X141083140Y-106628930D02*
X140393700Y-107207439D01*
X139654494Y-106326488D01*
X140343934Y-105747979D01*
X141083140Y-106628930D01*
X141083140Y-106628930D01*
G37*
G36*
X141849185Y-105986143D02*
X141159745Y-106564652D01*
X140420539Y-105683701D01*
X141109979Y-105105192D01*
X141849185Y-105986143D01*
X141849185Y-105986143D01*
G37*
G36*
X142079461Y-107816299D02*
X141390021Y-108394808D01*
X140650815Y-107513857D01*
X141340255Y-106935348D01*
X142079461Y-107816299D01*
X142079461Y-107816299D01*
G37*
G36*
X142845506Y-107173512D02*
X142156066Y-107752021D01*
X141416860Y-106871070D01*
X142106300Y-106292561D01*
X142845506Y-107173512D01*
X142845506Y-107173512D01*
G37*
D12*
X137250000Y-105975000D03*
X138250000Y-105975000D03*
X137250000Y-107525000D03*
X138250000Y-107525000D03*
D11*
X148775000Y-101750000D03*
X148775000Y-102750000D03*
X147225000Y-101750000D03*
X147225000Y-102750000D03*
X141775000Y-101750000D03*
X141775000Y-102750000D03*
X140225000Y-101750000D03*
X140225000Y-102750000D03*
X114775000Y-101750000D03*
X114775000Y-102750000D03*
X113225000Y-101750000D03*
X113225000Y-102750000D03*
X121775000Y-101750000D03*
X121775000Y-102750000D03*
X120225000Y-101750000D03*
X120225000Y-102750000D03*
D12*
X110250000Y-105975000D03*
X111250000Y-105975000D03*
X110250000Y-107525000D03*
X111250000Y-107525000D03*
D10*
G36*
X114083140Y-106628930D02*
X113393700Y-107207439D01*
X112654494Y-106326488D01*
X113343934Y-105747979D01*
X114083140Y-106628930D01*
X114083140Y-106628930D01*
G37*
G36*
X114849185Y-105986143D02*
X114159745Y-106564652D01*
X113420539Y-105683701D01*
X114109979Y-105105192D01*
X114849185Y-105986143D01*
X114849185Y-105986143D01*
G37*
G36*
X115079461Y-107816299D02*
X114390021Y-108394808D01*
X113650815Y-107513857D01*
X114340255Y-106935348D01*
X115079461Y-107816299D01*
X115079461Y-107816299D01*
G37*
G36*
X115845506Y-107173512D02*
X115156066Y-107752021D01*
X114416860Y-106871070D01*
X115106300Y-106292561D01*
X115845506Y-107173512D01*
X115845506Y-107173512D01*
G37*
D12*
X117000000Y-105975000D03*
X118000000Y-105975000D03*
X117000000Y-107525000D03*
X118000000Y-107525000D03*
D10*
G36*
X120840255Y-106564652D02*
X120150815Y-105986143D01*
X120890021Y-105105192D01*
X121579461Y-105683701D01*
X120840255Y-106564652D01*
X120840255Y-106564652D01*
G37*
G36*
X121606300Y-107207439D02*
X120916860Y-106628930D01*
X121656066Y-105747979D01*
X122345506Y-106326488D01*
X121606300Y-107207439D01*
X121606300Y-107207439D01*
G37*
G36*
X119843934Y-107752021D02*
X119154494Y-107173512D01*
X119893700Y-106292561D01*
X120583140Y-106871070D01*
X119843934Y-107752021D01*
X119843934Y-107752021D01*
G37*
G36*
X120609979Y-108394808D02*
X119920539Y-107816299D01*
X120659745Y-106935348D01*
X121349185Y-107513857D01*
X120609979Y-108394808D01*
X120609979Y-108394808D01*
G37*
D12*
X123750000Y-105975000D03*
X124750000Y-105975000D03*
X123750000Y-107525000D03*
X124750000Y-107525000D03*
D11*
X115025000Y-110500000D03*
X115025000Y-111500000D03*
X113475000Y-110500000D03*
X113475000Y-111500000D03*
X121525000Y-110500000D03*
X121525000Y-111500000D03*
X119975000Y-110500000D03*
X119975000Y-111500000D03*
D12*
X110250000Y-114725000D03*
X111250000Y-114725000D03*
X110250000Y-116275000D03*
X111250000Y-116275000D03*
D10*
G36*
X114090255Y-115314652D02*
X113400815Y-114736143D01*
X114140021Y-113855192D01*
X114829461Y-114433701D01*
X114090255Y-115314652D01*
X114090255Y-115314652D01*
G37*
G36*
X114856300Y-115957439D02*
X114166860Y-115378930D01*
X114906066Y-114497979D01*
X115595506Y-115076488D01*
X114856300Y-115957439D01*
X114856300Y-115957439D01*
G37*
G36*
X113093934Y-116502021D02*
X112404494Y-115923512D01*
X113143700Y-115042561D01*
X113833140Y-115621070D01*
X113093934Y-116502021D01*
X113093934Y-116502021D01*
G37*
G36*
X113859979Y-117144808D02*
X113170539Y-116566299D01*
X113909745Y-115685348D01*
X114599185Y-116263857D01*
X113859979Y-117144808D01*
X113859979Y-117144808D01*
G37*
D12*
X117000000Y-114725000D03*
X118000000Y-114725000D03*
X117000000Y-116275000D03*
X118000000Y-116275000D03*
D10*
G36*
X120833140Y-115378930D02*
X120143700Y-115957439D01*
X119404494Y-115076488D01*
X120093934Y-114497979D01*
X120833140Y-115378930D01*
X120833140Y-115378930D01*
G37*
G36*
X121599185Y-114736143D02*
X120909745Y-115314652D01*
X120170539Y-114433701D01*
X120859979Y-113855192D01*
X121599185Y-114736143D01*
X121599185Y-114736143D01*
G37*
G36*
X121829461Y-116566299D02*
X121140021Y-117144808D01*
X120400815Y-116263857D01*
X121090255Y-115685348D01*
X121829461Y-116566299D01*
X121829461Y-116566299D01*
G37*
G36*
X122595506Y-115923512D02*
X121906066Y-116502021D01*
X121166860Y-115621070D01*
X121856300Y-115042561D01*
X122595506Y-115923512D01*
X122595506Y-115923512D01*
G37*
D12*
X123750000Y-114725000D03*
X124750000Y-114725000D03*
X123750000Y-116275000D03*
X124750000Y-116275000D03*
D11*
X115025000Y-119250000D03*
X115025000Y-120250000D03*
X113475000Y-119250000D03*
X113475000Y-120250000D03*
X121525000Y-119250000D03*
X121525000Y-120250000D03*
X119975000Y-119250000D03*
X119975000Y-120250000D03*
D13*
X128250000Y-99500000D03*
D14*
X128250000Y-102040000D03*
X128250000Y-104580000D03*
X128250000Y-107120000D03*
X128250000Y-109660000D03*
X128250000Y-112200000D03*
X128250000Y-114740000D03*
X128250000Y-117280000D03*
X128250000Y-119820000D03*
X128250000Y-122360000D03*
D13*
X106750000Y-99500000D03*
D14*
X106750000Y-102040000D03*
X106750000Y-104580000D03*
X106750000Y-107120000D03*
X106750000Y-109660000D03*
X106750000Y-112200000D03*
X106750000Y-114740000D03*
X106750000Y-117280000D03*
X106750000Y-119820000D03*
X106750000Y-122360000D03*
M02*
